C:\Users\mayra\OneDrive - Universitat Pompeu Fabra\PhD_Mayra\OpenSim\aurel\ID_04_Walking_14.mot
version=1
nRows=22
nColumns=19
inDegrees=yes

BTS OpenSim export

endheader
time	r.gr_force_vx	r.gr_force_vy	r.gr_force_vz	r.gr_force_px	r.gr_force_py	r.gr_force_pz	l.gr_force_vx	l.gr_force_vy	l.gr_force_vz	l.gr_force_px	l.gr_force_py	l.gr_force_pz	r.gr_torque_x	r.gr_torque_y	r.gr_torque_z	l.gr_torque_x	l.gr_torque_y	l.gr_torque_z
5.104000	110.24871826	370.77871704	2.14559817	0.39124918	-0.00078413	0.31349507	-71.71107483	459.14694214	12.49998093	0.78375816	0.00141917	0.20398128	-0.01257770	2.28436637	0.00087912	0.00809737	-1.47064686	-0.00056597
5.108000	102.96471405	325.21206665	4.26982117	0.39283672	-0.00077514	0.31283972	-80.92214203	469.06115723	20.02336502	0.78633761	0.00143362	0.20332402	-0.01189670	2.16068244	0.00083152	0.01036696	-1.88285112	-0.00072460
5.112000	89.83471680	267.73141479	1.53951609	0.39910138	-0.00074256	0.31781405	-86.84794617	469.56179810	23.78151894	0.78734767	0.00143925	0.20315255	-0.00753382	1.36829507	0.00052658	0.01090699	-1.98093033	-0.00076234
5.116000	76.71063232	209.15428162	-1.19121087	0.40875447	-0.00069229	0.32530788	-86.85306549	470.09283447	25.39573479	0.78864348	0.00144635	0.20323965	-0.00202426	0.36764696	0.00014149	0.00931926	-1.69256747	-0.00065137
5.120000	64.55165863	170.21897888	-1.76106548	0.41094258	-0.00067892	0.32185736	-85.82621002	478.74298096	26.47644997	0.78995436	0.00145376	0.20273833	-0.00050897	0.09243888	0.00003557	0.00744105	-1.35144591	-0.00052009
5.124000	50.71020126	142.65454102	1.97534001	0.40519035	-0.00070611	0.31023008	-85.38928223	496.29745483	29.71195984	0.79255807	0.00146847	0.20175582	-0.00441697	0.80221206	0.00030872	0.00828228	-1.50423121	-0.00057889
5.128000	34.69577789	119.27145386	4.09642315	0.40699032	-0.00069312	0.30222875	-88.18304443	514.34967041	32.94328308	0.79440606	0.00147887	0.20118186	-0.00475376	0.86338019	0.00033226	0.00753194	-1.36795330	-0.00052644
5.132000	15.44902897	97.34729767	3.52374959	0.41621757	-0.00064497	0.30911872	-90.94569397	527.41540527	33.48262787	0.79503208	0.00148225	0.20136082	-0.00378133	0.68676633	0.00026430	0.00587408	-1.06685197	-0.00041057
5.136000	5.33830261	78.03221130	-0.26353773	0.43109518	-0.00056802	0.32201335	-92.09152222	540.48339844	31.87218285	0.79543906	0.00148428	0.20191644	0.00230544	-0.41871500	-0.00016114	0.00484848	-0.88058215	-0.00033888
5.140000	1.08692813	68.84751892	-1.88692319	0.43199387	-0.00056175	0.31858304	-92.71593475	555.91821289	32.95344162	0.79640973	0.00148957	0.20203586	0.00253070	-0.45962718	-0.00017688	0.00415836	-0.75524205	-0.00029065
5.144000	-4.28030729	66.00559235	0.25678310	0.41321594	-0.00065880	0.30210674	-92.28975677	575.55834961	35.65166855	0.79810822	0.00149913	0.20150524	0.00053160	-0.09654961	-0.00003716	0.00527059	-0.95724726	-0.00036839
5.148000	-6.92640972	58.16938019	-0.28796697	0.40811008	-0.00068314	0.29231331	-92.39577484	593.88342285	39.42470932	0.79957008	0.00150728	0.20125461	0.00109278	-0.19847181	-0.00007638	0.00732830	-1.33096862	-0.00051221
5.152000	-9.00881195	45.77085114	-1.37170660	0.41414654	-0.00065251	0.29909092	-91.39262390	606.70605469	41.04511642	0.80021441	0.00151067	0.20165752	0.00144462	-0.26237208	-0.00010097	0.00800881	-1.45456314	-0.00055978
5.156000	-11.09183502	33.90559006	-4.06913090	0.42676550	-0.00058851	0.31332737	-90.35041809	612.98797607	40.51090622	0.80058050	0.00151256	0.20197770	0.00173569	-0.31523719	-0.00012132	0.00666711	-1.21088290	-0.00046600
5.160000	-12.11765003	25.19945335	-5.68795347	0.45109123	-0.00045974	0.32674873	-88.77314758	619.79852295	39.97775650	0.80104160	0.00151503	0.20215726	0.00234330	-0.42559054	-0.00016378	0.00584639	-1.06182361	-0.00040863
5.164000	-11.55003357	19.41712952	-4.07543659	0.43240416	-0.00055808	0.31491870	-87.19235229	625.83526611	39.98226929	0.80347610	0.00152802	0.20323358	0.00193408	-0.35126916	-0.00013518	0.00525253	-0.95396692	-0.00036713
5.168000	-2.90692258	12.11688614	-0.30058149	0.35603696	-0.00095916	0.26452112	-86.17512512	636.23480225	41.06377792	0.80466110	0.00153455	0.20322782	0.00153106	-0.27807200	-0.00010701	0.00492569	-0.89460468	-0.00034428
5.172000	-0.18065386	5.28273964	0.77636433	0.25780353	-0.00147377	0.19628806	-82.99725342	645.08612061	42.14749146	0.80522633	0.00153762	0.20333825	0.00044595	-0.08099322	-0.00003117	0.00521424	-0.94701260	-0.00036445
5.176000	0.91927785	1.32414091	-0.83758986	0.21482751	-0.00172881	0.24411163	-81.95695496	651.84844971	41.07562637	0.80582166	0.00154079	0.20361941	0.00184598	-0.33526790	-0.00012903	0.00535739	-0.97301084	-0.00037445
5.180000	-0.14281751	-1.05813539	-1.37792957	0.61810213	0.00059961	-0.03648299	-79.84077454	658.35430908	41.08104706	0.80630052	0.00154333	0.20386460	0.00389420	-0.70726556	-0.00027219	0.00509634	-0.92559898	-0.00035621
5.184000	-0.15608780	1.35201848	-1.37700200	0.08960873	-0.00241369	0.23222892	-77.73174286	666.42651367	40.01114655	0.80719781	0.00154829	0.20382190	-0.00033415	0.06068789	0.00002336	0.00530135	-0.96283334	-0.00037054
5.188000	0.37156385	2.96082807	-0.29972631	0.10919079	-0.00228002	0.16506664	-75.61928558	673.47601318	40.55474091	0.80833983	0.00155452	0.20394945	0.00133501	-0.24246502	-0.00009331	0.00697042	-1.26596963	-0.00048720
